<?xml version="1.0" standalone="no"?>
<!DOCTYPE svg PUBLIC "-//W3C//DTD SVG 20010904//EN"
 "http://www.w3.org/TR/2001/REC-SVG-20010904/DTD/svg10.dtd">
<svg version="1.0" xmlns="http://www.w3.org/2000/svg"
 width="96.000000pt" height="96.000000pt" viewBox="0 0 96.000000 96.000000"
 preserveAspectRatio="xMidYMid meet">

<g transform="translate(0.000000,96.000000) scale(0.100000,-0.100000)"
fill="#000000" stroke="none">
<path d="M213 584 c-52 -52 -73 -81 -73 -99 0 -25 1 -25 80 -25 44 0 80 -2 80
-5 0 -3 -31 -37 -70 -75 -38 -38 -70 -72 -70 -75 0 -3 16 -5 35 -5 31 0 46 10
115 80 l79 80 96 0 95 0 0 -50 c0 -43 3 -50 20 -50 13 0 20 7 20 20 0 11 3 20
6 20 3 0 27 -22 54 -50 33 -34 57 -50 74 -50 14 0 26 2 26 6 0 3 -27 32 -60
64 -82 81 -80 90 20 90 79 0 80 0 80 25 0 18 -21 47 -75 100 -71 71 -77 75
-120 75 l-45 0 0 -80 0 -80 -70 0 -70 0 0 80 0 80 -30 0 -30 0 0 -80 0 -80
-80 0 c-44 0 -80 2 -80 5 0 3 32 37 70 75 39 38 70 72 70 75 0 3 -17 5 -37 4
-34 0 -47 -9 -110 -75z m472 -19 c30 -30 55 -57 55 -60 0 -12 -92 -4 -106 9
-13 14 -21 106 -9 106 3 0 30 -25 60 -55z"/>
</g>
</svg>
